<mxfile host="app.diagrams.net" modified="2023-06-03T23:25:37.655Z" agent="Mozilla/5.0 (Windows NT 10.0; Win64; x64) AppleWebKit/537.36 (KHTML, like Gecko) Chrome/112.0.0.0 Safari/537.36 OPR/98.0.0.0" etag="2SScAYPZkLr3_lh5Gs7c" version="21.3.7" type="device">
  <diagram name="Page-1" id="03018318-947c-dd8e-b7a3-06fadd420f32">
    <mxGraphModel dx="2018" dy="1100" grid="1" gridSize="10" guides="1" tooltips="1" connect="1" arrows="1" fold="1" page="1" pageScale="1" pageWidth="1100" pageHeight="850" background="none" math="0" shadow="0">
      <root>
        <mxCell id="0" />
        <mxCell id="1" parent="0" />
        <mxCell id="CQPkSI-9hvVEFMWQODbw-102" value="" style="whiteSpace=wrap;html=1;aspect=fixed;" vertex="1" parent="1">
          <mxGeometry x="33" y="1385" width="160" height="160" as="geometry" />
        </mxCell>
        <mxCell id="CQPkSI-9hvVEFMWQODbw-2" value="" style="verticalLabelPosition=bottom;verticalAlign=top;html=1;shadow=0;dashed=0;strokeWidth=1;shape=mxgraph.android.phone2;strokeColor=#d6b656;fillColor=#000000;" vertex="1" parent="1">
          <mxGeometry x="10" y="20" width="200" height="390" as="geometry" />
        </mxCell>
        <mxCell id="CQPkSI-9hvVEFMWQODbw-5" value="" style="verticalLabelPosition=bottom;verticalAlign=top;html=1;shadow=0;dashed=0;strokeWidth=1;shape=mxgraph.android.phone2;strokeColor=#d6b656;fillColor=#000000;" vertex="1" parent="1">
          <mxGeometry x="230" y="20" width="200" height="390" as="geometry" />
        </mxCell>
        <mxCell id="CQPkSI-9hvVEFMWQODbw-6" value="" style="verticalLabelPosition=bottom;verticalAlign=top;html=1;shadow=0;dashed=0;strokeWidth=1;shape=mxgraph.android.phone2;strokeColor=#d6b656;fillColor=#000000;" vertex="1" parent="1">
          <mxGeometry x="450" y="20" width="200" height="390" as="geometry" />
        </mxCell>
        <mxCell id="CQPkSI-9hvVEFMWQODbw-7" value="" style="verticalLabelPosition=bottom;verticalAlign=top;html=1;shadow=0;dashed=0;strokeWidth=1;shape=mxgraph.android.phone2;strokeColor=#d6b656;fillColor=#000000;" vertex="1" parent="1">
          <mxGeometry x="10" y="1270" width="200" height="390" as="geometry" />
        </mxCell>
        <mxCell id="CQPkSI-9hvVEFMWQODbw-8" value="" style="verticalLabelPosition=bottom;verticalAlign=top;html=1;shadow=0;dashed=0;strokeWidth=1;shape=mxgraph.android.phone2;strokeColor=#d6b656;fillColor=#000000;" vertex="1" parent="1">
          <mxGeometry x="230" y="857" width="200" height="390" as="geometry" />
        </mxCell>
        <mxCell id="CQPkSI-9hvVEFMWQODbw-9" value="" style="verticalLabelPosition=bottom;verticalAlign=top;html=1;shadow=0;dashed=0;strokeWidth=1;shape=mxgraph.android.phone2;strokeColor=#d6b656;fillColor=#000000;" vertex="1" parent="1">
          <mxGeometry x="10" y="440" width="200" height="390" as="geometry" />
        </mxCell>
        <mxCell id="CQPkSI-9hvVEFMWQODbw-10" value="" style="verticalLabelPosition=bottom;verticalAlign=top;html=1;shadow=0;dashed=0;strokeWidth=1;shape=mxgraph.android.phone2;strokeColor=#d6b656;fillColor=#000000;" vertex="1" parent="1">
          <mxGeometry x="230" y="440" width="200" height="390" as="geometry" />
        </mxCell>
        <mxCell id="CQPkSI-9hvVEFMWQODbw-11" value="" style="verticalLabelPosition=bottom;verticalAlign=top;html=1;shadow=0;dashed=0;strokeWidth=1;shape=mxgraph.android.phone2;strokeColor=#d6b656;fillColor=#000000;" vertex="1" parent="1">
          <mxGeometry x="450" y="440" width="200" height="390" as="geometry" />
        </mxCell>
        <mxCell id="CQPkSI-9hvVEFMWQODbw-12" value="" style="verticalLabelPosition=bottom;verticalAlign=top;html=1;shadow=0;dashed=0;strokeWidth=1;shape=mxgraph.android.phone2;strokeColor=#d6b656;fillColor=#000000;" vertex="1" parent="1">
          <mxGeometry x="450" y="857" width="200" height="390" as="geometry" />
        </mxCell>
        <mxCell id="CQPkSI-9hvVEFMWQODbw-13" value="" style="verticalLabelPosition=bottom;verticalAlign=top;html=1;shadow=0;dashed=0;strokeWidth=1;shape=mxgraph.android.phone2;strokeColor=#d6b656;fillColor=#000000;" vertex="1" parent="1">
          <mxGeometry x="10" y="857" width="200" height="390" as="geometry" />
        </mxCell>
        <mxCell id="CQPkSI-9hvVEFMWQODbw-14" value="" style="whiteSpace=wrap;html=1;aspect=fixed;fillStyle=solid;" vertex="1" parent="1">
          <mxGeometry x="22" y="62" width="40" height="40" as="geometry" />
        </mxCell>
        <mxCell id="CQPkSI-9hvVEFMWQODbw-15" value="" style="whiteSpace=wrap;html=1;aspect=fixed;" vertex="1" parent="1">
          <mxGeometry x="67" y="62" width="40" height="40" as="geometry" />
        </mxCell>
        <mxCell id="CQPkSI-9hvVEFMWQODbw-16" value="" style="whiteSpace=wrap;html=1;aspect=fixed;" vertex="1" parent="1">
          <mxGeometry x="112" y="62" width="40" height="40" as="geometry" />
        </mxCell>
        <mxCell id="CQPkSI-9hvVEFMWQODbw-17" value="" style="whiteSpace=wrap;html=1;aspect=fixed;" vertex="1" parent="1">
          <mxGeometry x="157" y="62" width="40" height="40" as="geometry" />
        </mxCell>
        <mxCell id="CQPkSI-9hvVEFMWQODbw-18" value="" style="whiteSpace=wrap;html=1;aspect=fixed;" vertex="1" parent="1">
          <mxGeometry x="157.5" y="110" width="40" height="40" as="geometry" />
        </mxCell>
        <mxCell id="CQPkSI-9hvVEFMWQODbw-19" value="" style="whiteSpace=wrap;html=1;aspect=fixed;" vertex="1" parent="1">
          <mxGeometry x="112.5" y="110" width="40" height="40" as="geometry" />
        </mxCell>
        <mxCell id="CQPkSI-9hvVEFMWQODbw-20" value="" style="whiteSpace=wrap;html=1;aspect=fixed;" vertex="1" parent="1">
          <mxGeometry x="67.5" y="110" width="40" height="40" as="geometry" />
        </mxCell>
        <mxCell id="CQPkSI-9hvVEFMWQODbw-21" value="" style="whiteSpace=wrap;html=1;aspect=fixed;" vertex="1" parent="1">
          <mxGeometry x="22.5" y="110" width="40" height="40" as="geometry" />
        </mxCell>
        <mxCell id="CQPkSI-9hvVEFMWQODbw-30" style="edgeStyle=orthogonalEdgeStyle;rounded=0;orthogonalLoop=1;jettySize=auto;html=1;entryX=0.009;entryY=0.292;entryDx=0;entryDy=0;entryPerimeter=0;exitX=1;exitY=0.5;exitDx=0;exitDy=0;" edge="1" parent="1" source="CQPkSI-9hvVEFMWQODbw-22" target="CQPkSI-9hvVEFMWQODbw-5">
          <mxGeometry relative="1" as="geometry">
            <Array as="points">
              <mxPoint x="218" y="177" />
              <mxPoint x="218" y="134" />
            </Array>
          </mxGeometry>
        </mxCell>
        <mxCell id="CQPkSI-9hvVEFMWQODbw-22" value="" style="whiteSpace=wrap;html=1;aspect=fixed;fillStyle=hatch;fillColor=#000000;gradientColor=none;" vertex="1" parent="1">
          <mxGeometry x="157.5" y="157" width="40" height="40" as="geometry" />
        </mxCell>
        <mxCell id="CQPkSI-9hvVEFMWQODbw-23" value="" style="whiteSpace=wrap;html=1;aspect=fixed;" vertex="1" parent="1">
          <mxGeometry x="112.5" y="157" width="40" height="40" as="geometry" />
        </mxCell>
        <mxCell id="CQPkSI-9hvVEFMWQODbw-24" value="" style="whiteSpace=wrap;html=1;aspect=fixed;" vertex="1" parent="1">
          <mxGeometry x="67.5" y="157" width="40" height="40" as="geometry" />
        </mxCell>
        <mxCell id="CQPkSI-9hvVEFMWQODbw-25" value="" style="whiteSpace=wrap;html=1;aspect=fixed;" vertex="1" parent="1">
          <mxGeometry x="22.5" y="157" width="40" height="40" as="geometry" />
        </mxCell>
        <mxCell id="CQPkSI-9hvVEFMWQODbw-26" value="Entrar" style="rounded=0;whiteSpace=wrap;html=1;" vertex="1" parent="1">
          <mxGeometry x="270" y="297" width="120" height="28" as="geometry" />
        </mxCell>
        <mxCell id="CQPkSI-9hvVEFMWQODbw-36" style="edgeStyle=orthogonalEdgeStyle;rounded=0;orthogonalLoop=1;jettySize=auto;html=1;exitX=1;exitY=0.5;exitDx=0;exitDy=0;entryX=0.021;entryY=0.286;entryDx=0;entryDy=0;entryPerimeter=0;" edge="1" parent="1" source="CQPkSI-9hvVEFMWQODbw-27" target="CQPkSI-9hvVEFMWQODbw-6">
          <mxGeometry relative="1" as="geometry">
            <Array as="points">
              <mxPoint x="440" y="349" />
              <mxPoint x="440" y="131" />
            </Array>
          </mxGeometry>
        </mxCell>
        <mxCell id="CQPkSI-9hvVEFMWQODbw-27" value="Criar conta" style="rounded=0;whiteSpace=wrap;html=1;" vertex="1" parent="1">
          <mxGeometry x="270" y="335" width="120" height="28" as="geometry" />
        </mxCell>
        <mxCell id="CQPkSI-9hvVEFMWQODbw-28" value="" style="verticalLabelPosition=bottom;verticalAlign=top;html=1;shadow=0;dashed=0;strokeWidth=1;shape=mxgraph.android.phone2;strokeColor=#d6b656;fillColor=#000000;" vertex="1" parent="1">
          <mxGeometry x="230" y="1270" width="200" height="390" as="geometry" />
        </mxCell>
        <mxCell id="CQPkSI-9hvVEFMWQODbw-29" value="" style="verticalLabelPosition=bottom;verticalAlign=top;html=1;shadow=0;dashed=0;strokeWidth=1;shape=mxgraph.android.phone2;strokeColor=#d6b656;fillColor=#000000;" vertex="1" parent="1">
          <mxGeometry x="450" y="1270" width="200" height="390" as="geometry" />
        </mxCell>
        <mxCell id="CQPkSI-9hvVEFMWQODbw-32" value="" style="whiteSpace=wrap;html=1;aspect=fixed;" vertex="1" parent="1">
          <mxGeometry x="258.5" y="102" width="143" height="143" as="geometry" />
        </mxCell>
        <mxCell id="CQPkSI-9hvVEFMWQODbw-34" value="" style="line;strokeWidth=4;html=1;perimeter=backbonePerimeter;points=[];outlineConnect=0;" vertex="1" parent="1">
          <mxGeometry x="275" y="258" width="110" height="10" as="geometry" />
        </mxCell>
        <mxCell id="CQPkSI-9hvVEFMWQODbw-35" value="" style="line;strokeWidth=4;html=1;perimeter=backbonePerimeter;points=[];outlineConnect=0;" vertex="1" parent="1">
          <mxGeometry x="275" y="276" width="110" height="10" as="geometry" />
        </mxCell>
        <mxCell id="CQPkSI-9hvVEFMWQODbw-37" value="" style="shape=image;html=1;verticalAlign=top;verticalLabelPosition=bottom;labelBackgroundColor=#ffffff;imageAspect=0;aspect=fixed;image=https://cdn2.iconfinder.com/data/icons/boxicons-solid-vol-2/24/bxs-pointer-128.png" vertex="1" parent="1">
          <mxGeometry x="166.5" y="180" width="31" height="31" as="geometry" />
        </mxCell>
        <mxCell id="CQPkSI-9hvVEFMWQODbw-38" value="" style="shape=image;html=1;verticalAlign=top;verticalLabelPosition=bottom;labelBackgroundColor=#ffffff;imageAspect=0;aspect=fixed;image=https://cdn2.iconfinder.com/data/icons/boxicons-solid-vol-2/24/bxs-pointer-128.png" vertex="1" parent="1">
          <mxGeometry x="370.5" y="340" width="31" height="31" as="geometry" />
        </mxCell>
        <mxCell id="CQPkSI-9hvVEFMWQODbw-41" value="Nome completo" style="rounded=0;whiteSpace=wrap;html=1;" vertex="1" parent="1">
          <mxGeometry x="490" y="110" width="120" height="28" as="geometry" />
        </mxCell>
        <mxCell id="CQPkSI-9hvVEFMWQODbw-42" value="Data Nascimento" style="rounded=0;whiteSpace=wrap;html=1;" vertex="1" parent="1">
          <mxGeometry x="490" y="150" width="120" height="28" as="geometry" />
        </mxCell>
        <mxCell id="CQPkSI-9hvVEFMWQODbw-43" value="E-mail" style="rounded=0;whiteSpace=wrap;html=1;" vertex="1" parent="1">
          <mxGeometry x="490" y="190" width="120" height="28" as="geometry" />
        </mxCell>
        <mxCell id="CQPkSI-9hvVEFMWQODbw-44" value="Senha" style="rounded=0;whiteSpace=wrap;html=1;" vertex="1" parent="1">
          <mxGeometry x="490" y="230" width="120" height="28" as="geometry" />
        </mxCell>
        <mxCell id="CQPkSI-9hvVEFMWQODbw-48" style="edgeStyle=orthogonalEdgeStyle;rounded=0;orthogonalLoop=1;jettySize=auto;html=1;entryX=0.538;entryY=0.001;entryDx=0;entryDy=0;entryPerimeter=0;" edge="1" parent="1" source="CQPkSI-9hvVEFMWQODbw-45" target="CQPkSI-9hvVEFMWQODbw-9">
          <mxGeometry relative="1" as="geometry">
            <Array as="points">
              <mxPoint x="660" y="281" />
              <mxPoint x="660" y="420" />
              <mxPoint x="118" y="420" />
            </Array>
          </mxGeometry>
        </mxCell>
        <mxCell id="CQPkSI-9hvVEFMWQODbw-45" value="" style="line;strokeWidth=4;html=1;perimeter=backbonePerimeter;points=[];outlineConnect=0;" vertex="1" parent="1">
          <mxGeometry x="495" y="276" width="110" height="10" as="geometry" />
        </mxCell>
        <mxCell id="CQPkSI-9hvVEFMWQODbw-46" value="" style="line;strokeWidth=4;html=1;perimeter=backbonePerimeter;points=[];outlineConnect=0;" vertex="1" parent="1">
          <mxGeometry x="495" y="297" width="110" height="10" as="geometry" />
        </mxCell>
        <mxCell id="CQPkSI-9hvVEFMWQODbw-50" style="edgeStyle=orthogonalEdgeStyle;rounded=0;orthogonalLoop=1;jettySize=auto;html=1;" edge="1" parent="1" source="CQPkSI-9hvVEFMWQODbw-47" target="CQPkSI-9hvVEFMWQODbw-10">
          <mxGeometry relative="1" as="geometry">
            <Array as="points">
              <mxPoint x="680" y="339" />
              <mxPoint x="680" y="430" />
              <mxPoint x="330" y="430" />
            </Array>
          </mxGeometry>
        </mxCell>
        <mxCell id="CQPkSI-9hvVEFMWQODbw-47" value="Criar conta" style="rounded=0;whiteSpace=wrap;html=1;" vertex="1" parent="1">
          <mxGeometry x="490" y="325" width="120" height="28" as="geometry" />
        </mxCell>
        <mxCell id="CQPkSI-9hvVEFMWQODbw-49" value="&lt;strong style=&quot;margin: 0px; padding: 0px; font-family: &amp;quot;Open Sans&amp;quot;, Arial, sans-serif; font-size: 14px; text-align: justify; background-color: rgb(255, 255, 255);&quot;&gt;Lorem Ipsum&lt;/strong&gt;&amp;nbsp;is simply dummy text of the printing and typesetting industry. Lorem Ipsum has been the industry&#39;s standard dummy text ever since the 1500s, when an unknown printer took a galley of type and scrambled it to make a type specimen book. It has survived not only five centuries, but also the leap into electronic typesetting, remaining essentially unchanged. It was popularised in the 1960s with the release of Letraset sheets con" style="rounded=0;whiteSpace=wrap;html=1;" vertex="1" parent="1">
          <mxGeometry x="28" y="510" width="170" height="260" as="geometry" />
        </mxCell>
        <mxCell id="CQPkSI-9hvVEFMWQODbw-51" value="" style="whiteSpace=wrap;html=1;aspect=fixed;" vertex="1" parent="1">
          <mxGeometry x="247" y="550" width="80" height="80" as="geometry" />
        </mxCell>
        <mxCell id="CQPkSI-9hvVEFMWQODbw-52" value="" style="whiteSpace=wrap;html=1;aspect=fixed;" vertex="1" parent="1">
          <mxGeometry x="335" y="550" width="80" height="80" as="geometry" />
        </mxCell>
        <mxCell id="CQPkSI-9hvVEFMWQODbw-53" value="" style="whiteSpace=wrap;html=1;aspect=fixed;" vertex="1" parent="1">
          <mxGeometry x="334" y="640" width="80" height="80" as="geometry" />
        </mxCell>
        <mxCell id="CQPkSI-9hvVEFMWQODbw-54" value="" style="whiteSpace=wrap;html=1;aspect=fixed;" vertex="1" parent="1">
          <mxGeometry x="246" y="640" width="80" height="80" as="geometry" />
        </mxCell>
        <mxCell id="CQPkSI-9hvVEFMWQODbw-56" value="Catálogo" style="text;html=1;strokeColor=none;fillColor=none;align=center;verticalAlign=middle;whiteSpace=wrap;rounded=0;" vertex="1" parent="1">
          <mxGeometry x="245" y="480" width="60" height="30" as="geometry" />
        </mxCell>
        <mxCell id="CQPkSI-9hvVEFMWQODbw-57" value="Termos" style="text;html=1;strokeColor=none;fillColor=none;align=center;verticalAlign=middle;whiteSpace=wrap;rounded=0;" vertex="1" parent="1">
          <mxGeometry x="28" y="480" width="60" height="30" as="geometry" />
        </mxCell>
        <mxCell id="CQPkSI-9hvVEFMWQODbw-58" value="MENU" style="rounded=0;whiteSpace=wrap;html=1;" vertex="1" parent="1">
          <mxGeometry x="243" y="760" width="174" height="30" as="geometry" />
        </mxCell>
        <mxCell id="CQPkSI-9hvVEFMWQODbw-60" style="edgeStyle=orthogonalEdgeStyle;rounded=0;orthogonalLoop=1;jettySize=auto;html=1;entryX=-0.013;entryY=0.285;entryDx=0;entryDy=0;entryPerimeter=0;" edge="1" parent="1" source="CQPkSI-9hvVEFMWQODbw-59" target="CQPkSI-9hvVEFMWQODbw-11">
          <mxGeometry relative="1" as="geometry" />
        </mxCell>
        <mxCell id="CQPkSI-9hvVEFMWQODbw-59" value="" style="shape=image;html=1;verticalAlign=top;verticalLabelPosition=bottom;labelBackgroundColor=#ffffff;imageAspect=0;aspect=fixed;image=https://cdn1.iconfinder.com/data/icons/science-technology-outline-24-px/24/Magnifier_magnifying_glass_search_search_web_searching_glass-128.png" vertex="1" parent="1">
          <mxGeometry x="376" y="496" width="38" height="38" as="geometry" />
        </mxCell>
        <mxCell id="CQPkSI-9hvVEFMWQODbw-61" value="Pesquisa" style="text;html=1;strokeColor=none;fillColor=none;align=center;verticalAlign=middle;whiteSpace=wrap;rounded=0;" vertex="1" parent="1">
          <mxGeometry x="470" y="480" width="60" height="30" as="geometry" />
        </mxCell>
        <mxCell id="CQPkSI-9hvVEFMWQODbw-62" value="" style="whiteSpace=wrap;html=1;aspect=fixed;" vertex="1" parent="1">
          <mxGeometry x="472" y="534" width="158" height="158" as="geometry" />
        </mxCell>
        <mxCell id="CQPkSI-9hvVEFMWQODbw-66" style="edgeStyle=orthogonalEdgeStyle;rounded=0;orthogonalLoop=1;jettySize=auto;html=1;exitX=1;exitY=0.5;exitDx=0;exitDy=0;" edge="1" parent="1" source="CQPkSI-9hvVEFMWQODbw-63" target="CQPkSI-9hvVEFMWQODbw-13">
          <mxGeometry relative="1" as="geometry">
            <Array as="points">
              <mxPoint x="660" y="650" />
              <mxPoint x="660" y="840" />
              <mxPoint x="110" y="840" />
            </Array>
          </mxGeometry>
        </mxCell>
        <mxCell id="CQPkSI-9hvVEFMWQODbw-63" value="Enviar" style="rounded=0;whiteSpace=wrap;html=1;" vertex="1" parent="1">
          <mxGeometry x="490" y="630" width="120" height="40" as="geometry" />
        </mxCell>
        <mxCell id="CQPkSI-9hvVEFMWQODbw-64" value="Text" style="text;html=1;strokeColor=none;fillColor=none;align=center;verticalAlign=middle;whiteSpace=wrap;rounded=0;" vertex="1" parent="1">
          <mxGeometry x="520" y="575" width="60" height="30" as="geometry" />
        </mxCell>
        <mxCell id="CQPkSI-9hvVEFMWQODbw-67" value="Resultado Pesquisa" style="text;html=1;strokeColor=none;fillColor=none;align=center;verticalAlign=middle;whiteSpace=wrap;rounded=0;" vertex="1" parent="1">
          <mxGeometry x="28" y="900" width="112" height="30" as="geometry" />
        </mxCell>
        <mxCell id="CQPkSI-9hvVEFMWQODbw-68" value="" style="whiteSpace=wrap;html=1;aspect=fixed;" vertex="1" parent="1">
          <mxGeometry x="27" y="966" width="80" height="80" as="geometry" />
        </mxCell>
        <mxCell id="CQPkSI-9hvVEFMWQODbw-73" style="edgeStyle=orthogonalEdgeStyle;rounded=0;orthogonalLoop=1;jettySize=auto;html=1;entryX=-0.002;entryY=0.436;entryDx=0;entryDy=0;entryPerimeter=0;" edge="1" parent="1" source="CQPkSI-9hvVEFMWQODbw-69" target="CQPkSI-9hvVEFMWQODbw-8">
          <mxGeometry relative="1" as="geometry" />
        </mxCell>
        <mxCell id="CQPkSI-9hvVEFMWQODbw-69" value="" style="whiteSpace=wrap;html=1;aspect=fixed;" vertex="1" parent="1">
          <mxGeometry x="115" y="966" width="80" height="80" as="geometry" />
        </mxCell>
        <mxCell id="CQPkSI-9hvVEFMWQODbw-70" value="" style="whiteSpace=wrap;html=1;aspect=fixed;" vertex="1" parent="1">
          <mxGeometry x="114" y="1056" width="80" height="80" as="geometry" />
        </mxCell>
        <mxCell id="CQPkSI-9hvVEFMWQODbw-71" value="" style="whiteSpace=wrap;html=1;aspect=fixed;" vertex="1" parent="1">
          <mxGeometry x="26" y="1056" width="80" height="80" as="geometry" />
        </mxCell>
        <mxCell id="CQPkSI-9hvVEFMWQODbw-72" value="MENU" style="rounded=0;whiteSpace=wrap;html=1;" vertex="1" parent="1">
          <mxGeometry x="23" y="1176" width="174" height="30" as="geometry" />
        </mxCell>
        <mxCell id="CQPkSI-9hvVEFMWQODbw-74" value="Adicionar ao carrinho de compras" style="rounded=0;whiteSpace=wrap;html=1;" vertex="1" parent="1">
          <mxGeometry x="270" y="980" width="120" height="94" as="geometry" />
        </mxCell>
        <mxCell id="CQPkSI-9hvVEFMWQODbw-79" style="edgeStyle=orthogonalEdgeStyle;rounded=0;orthogonalLoop=1;jettySize=auto;html=1;" edge="1" parent="1" source="CQPkSI-9hvVEFMWQODbw-75">
          <mxGeometry relative="1" as="geometry">
            <mxPoint x="114" y="1270" as="targetPoint" />
            <Array as="points">
              <mxPoint x="220" y="1096" />
              <mxPoint x="220" y="1250" />
              <mxPoint x="114" y="1250" />
            </Array>
          </mxGeometry>
        </mxCell>
        <mxCell id="CQPkSI-9hvVEFMWQODbw-75" value="Sim" style="rounded=0;whiteSpace=wrap;html=1;" vertex="1" parent="1">
          <mxGeometry x="270" y="1081" width="55" height="30" as="geometry" />
        </mxCell>
        <mxCell id="CQPkSI-9hvVEFMWQODbw-78" style="edgeStyle=orthogonalEdgeStyle;rounded=0;orthogonalLoop=1;jettySize=auto;html=1;exitX=1;exitY=0.5;exitDx=0;exitDy=0;entryX=0.012;entryY=0.546;entryDx=0;entryDy=0;entryPerimeter=0;" edge="1" parent="1" source="CQPkSI-9hvVEFMWQODbw-77" target="CQPkSI-9hvVEFMWQODbw-12">
          <mxGeometry relative="1" as="geometry" />
        </mxCell>
        <mxCell id="CQPkSI-9hvVEFMWQODbw-77" value="Não" style="rounded=0;whiteSpace=wrap;html=1;" vertex="1" parent="1">
          <mxGeometry x="335" y="1081" width="55" height="30" as="geometry" />
        </mxCell>
        <mxCell id="CQPkSI-9hvVEFMWQODbw-80" value="" style="whiteSpace=wrap;html=1;aspect=fixed;" vertex="1" parent="1">
          <mxGeometry x="470" y="967" width="160" height="160" as="geometry" />
        </mxCell>
        <mxCell id="CQPkSI-9hvVEFMWQODbw-81" value="Seu carrinho de compras está vazio" style="text;html=1;strokeColor=none;fillColor=none;align=center;verticalAlign=middle;whiteSpace=wrap;rounded=0;" vertex="1" parent="1">
          <mxGeometry x="485" y="1032" width="130" height="30" as="geometry" />
        </mxCell>
        <mxCell id="CQPkSI-9hvVEFMWQODbw-82" value="" style="shape=image;html=1;verticalAlign=top;verticalLabelPosition=bottom;labelBackgroundColor=#ffffff;imageAspect=0;aspect=fixed;image=https://cdn1.iconfinder.com/data/icons/material-core/18/check-box-outline-128.png" vertex="1" parent="1">
          <mxGeometry x="476" y="274" width="14" height="14" as="geometry" />
        </mxCell>
        <mxCell id="CQPkSI-9hvVEFMWQODbw-83" value="" style="shape=image;html=1;verticalAlign=top;verticalLabelPosition=bottom;labelBackgroundColor=#ffffff;imageAspect=0;aspect=fixed;image=https://cdn1.iconfinder.com/data/icons/material-core/18/check-box-outline-128.png" vertex="1" parent="1">
          <mxGeometry x="476" y="295" width="14" height="14" as="geometry" />
        </mxCell>
        <mxCell id="CQPkSI-9hvVEFMWQODbw-86" style="edgeStyle=orthogonalEdgeStyle;rounded=0;orthogonalLoop=1;jettySize=auto;html=1;entryX=0.528;entryY=0.995;entryDx=0;entryDy=0;entryPerimeter=0;" edge="1" parent="1" source="CQPkSI-9hvVEFMWQODbw-85" target="CQPkSI-9hvVEFMWQODbw-10">
          <mxGeometry relative="1" as="geometry">
            <Array as="points">
              <mxPoint x="660" y="905" />
              <mxPoint x="660" y="850" />
              <mxPoint x="336" y="850" />
            </Array>
          </mxGeometry>
        </mxCell>
        <mxCell id="CQPkSI-9hvVEFMWQODbw-85" value="" style="shape=mxgraph.sysml.x;" vertex="1" parent="1">
          <mxGeometry x="620" y="900" width="10" height="10" as="geometry" />
        </mxCell>
        <mxCell id="CQPkSI-9hvVEFMWQODbw-87" value="&lt;h1 style=&quot;font-size: 10px;&quot;&gt;&lt;span style=&quot;font-size: 5px; background-color: initial; font-weight: normal;&quot;&gt;Lorem ipsum dolor sit amet, consectetur adipisicing elit, sed do eiusmod tempor incididunt ut labore.&lt;/span&gt;&lt;br&gt;&lt;/h1&gt;" style="text;html=1;strokeColor=none;fillColor=none;spacing=5;spacingTop=-20;whiteSpace=wrap;overflow=hidden;rounded=0;" vertex="1" parent="1">
          <mxGeometry x="285.5" y="1390" width="128" height="30" as="geometry" />
        </mxCell>
        <mxCell id="CQPkSI-9hvVEFMWQODbw-88" value="" style="rounded=0;whiteSpace=wrap;html=1;" vertex="1" parent="1">
          <mxGeometry x="249" y="1390" width="34" height="30" as="geometry" />
        </mxCell>
        <mxCell id="CQPkSI-9hvVEFMWQODbw-89" value="" style="rounded=0;whiteSpace=wrap;html=1;" vertex="1" parent="1">
          <mxGeometry x="249" y="1430" width="34" height="30" as="geometry" />
        </mxCell>
        <mxCell id="CQPkSI-9hvVEFMWQODbw-90" value="&lt;h1 style=&quot;font-size: 10px;&quot;&gt;&lt;span style=&quot;font-size: 5px; background-color: initial; font-weight: normal;&quot;&gt;Lorem ipsum dolor sit amet, consectetur adipisicing elit, sed do eiusmod tempor incididunt ut labore.&lt;/span&gt;&lt;br&gt;&lt;/h1&gt;" style="text;html=1;strokeColor=none;fillColor=none;spacing=5;spacingTop=-20;whiteSpace=wrap;overflow=hidden;rounded=0;" vertex="1" parent="1">
          <mxGeometry x="284.5" y="1430" width="128" height="30" as="geometry" />
        </mxCell>
        <mxCell id="CQPkSI-9hvVEFMWQODbw-91" value="" style="rounded=0;whiteSpace=wrap;html=1;" vertex="1" parent="1">
          <mxGeometry x="249" y="1470" width="34" height="30" as="geometry" />
        </mxCell>
        <mxCell id="CQPkSI-9hvVEFMWQODbw-92" value="&lt;h1 style=&quot;font-size: 10px;&quot;&gt;&lt;span style=&quot;font-size: 5px; background-color: initial; font-weight: normal;&quot;&gt;Lorem ipsum dolor sit amet, consectetur adipisicing elit, sed do eiusmod tempor incididunt ut labore.&lt;/span&gt;&lt;br&gt;&lt;/h1&gt;" style="text;html=1;strokeColor=none;fillColor=none;spacing=5;spacingTop=-20;whiteSpace=wrap;overflow=hidden;rounded=0;" vertex="1" parent="1">
          <mxGeometry x="285.5" y="1470" width="128" height="30" as="geometry" />
        </mxCell>
        <mxCell id="CQPkSI-9hvVEFMWQODbw-93" value="Carrinho de compras" style="text;html=1;strokeColor=none;fillColor=none;align=center;verticalAlign=middle;whiteSpace=wrap;rounded=0;" vertex="1" parent="1">
          <mxGeometry x="245" y="1319" width="130" height="30" as="geometry" />
        </mxCell>
        <mxCell id="CQPkSI-9hvVEFMWQODbw-94" value="MENU" style="rounded=0;whiteSpace=wrap;html=1;" vertex="1" parent="1">
          <mxGeometry x="243" y="1590" width="174" height="30" as="geometry" />
        </mxCell>
        <mxCell id="CQPkSI-9hvVEFMWQODbw-95" value="" style="verticalLabelPosition=bottom;verticalAlign=top;html=1;shadow=0;dashed=0;strokeWidth=1;shape=mxgraph.android.phone2;strokeColor=#d6b656;fillColor=#000000;" vertex="1" parent="1">
          <mxGeometry x="450" y="1690" width="200" height="390" as="geometry" />
        </mxCell>
        <mxCell id="CQPkSI-9hvVEFMWQODbw-96" value="" style="verticalLabelPosition=bottom;verticalAlign=top;html=1;shadow=0;dashed=0;strokeWidth=1;shape=mxgraph.android.phone2;strokeColor=#d6b656;fillColor=#000000;" vertex="1" parent="1">
          <mxGeometry x="230" y="1690" width="200" height="390" as="geometry" />
        </mxCell>
        <mxCell id="CQPkSI-9hvVEFMWQODbw-97" value="" style="verticalLabelPosition=bottom;verticalAlign=top;html=1;shadow=0;dashed=0;strokeWidth=1;shape=mxgraph.android.phone2;strokeColor=#d6b656;fillColor=#000000;" vertex="1" parent="1">
          <mxGeometry x="10" y="1690" width="200" height="390" as="geometry" />
        </mxCell>
        <mxCell id="CQPkSI-9hvVEFMWQODbw-98" value="" style="verticalLabelPosition=bottom;verticalAlign=top;html=1;shadow=0;dashed=0;strokeWidth=1;shape=mxgraph.android.phone2;strokeColor=#d6b656;fillColor=#000000;" vertex="1" parent="1">
          <mxGeometry x="450" y="2120" width="200" height="390" as="geometry" />
        </mxCell>
        <mxCell id="CQPkSI-9hvVEFMWQODbw-99" value="" style="verticalLabelPosition=bottom;verticalAlign=top;html=1;shadow=0;dashed=0;strokeWidth=1;shape=mxgraph.android.phone2;strokeColor=#d6b656;fillColor=#000000;" vertex="1" parent="1">
          <mxGeometry x="230" y="2120" width="200" height="390" as="geometry" />
        </mxCell>
        <mxCell id="CQPkSI-9hvVEFMWQODbw-100" value="" style="verticalLabelPosition=bottom;verticalAlign=top;html=1;shadow=0;dashed=0;strokeWidth=1;shape=mxgraph.android.phone2;strokeColor=#d6b656;fillColor=#000000;" vertex="1" parent="1">
          <mxGeometry x="10" y="2120" width="200" height="390" as="geometry" />
        </mxCell>
        <mxCell id="CQPkSI-9hvVEFMWQODbw-101" value="Item adicionado com sucesso" style="text;html=1;strokeColor=none;fillColor=none;align=center;verticalAlign=middle;whiteSpace=wrap;rounded=0;" vertex="1" parent="1">
          <mxGeometry x="48" y="1450" width="130" height="30" as="geometry" />
        </mxCell>
        <mxCell id="CQPkSI-9hvVEFMWQODbw-105" style="edgeStyle=orthogonalEdgeStyle;rounded=0;orthogonalLoop=1;jettySize=auto;html=1;entryX=0.006;entryY=0.505;entryDx=0;entryDy=0;entryPerimeter=0;" edge="1" parent="1" source="CQPkSI-9hvVEFMWQODbw-104" target="CQPkSI-9hvVEFMWQODbw-28">
          <mxGeometry relative="1" as="geometry" />
        </mxCell>
        <mxCell id="CQPkSI-9hvVEFMWQODbw-104" value="Ir para o carrinho" style="rounded=0;whiteSpace=wrap;html=1;" vertex="1" parent="1">
          <mxGeometry x="50" y="1550" width="120" height="30" as="geometry" />
        </mxCell>
        <mxCell id="CQPkSI-9hvVEFMWQODbw-108" style="edgeStyle=orthogonalEdgeStyle;rounded=0;orthogonalLoop=1;jettySize=auto;html=1;entryX=0.004;entryY=0.572;entryDx=0;entryDy=0;entryPerimeter=0;" edge="1" parent="1" source="CQPkSI-9hvVEFMWQODbw-106" target="CQPkSI-9hvVEFMWQODbw-29">
          <mxGeometry relative="1" as="geometry" />
        </mxCell>
        <mxCell id="CQPkSI-9hvVEFMWQODbw-106" value="Ir para pagamento" style="rounded=0;whiteSpace=wrap;html=1;" vertex="1" parent="1">
          <mxGeometry x="243" y="1510" width="174" height="30" as="geometry" />
        </mxCell>
        <mxCell id="CQPkSI-9hvVEFMWQODbw-109" value="Endereço" style="text;html=1;strokeColor=none;fillColor=none;align=left;verticalAlign=middle;whiteSpace=wrap;rounded=0;" vertex="1" parent="1">
          <mxGeometry x="475" y="1314" width="130" height="30" as="geometry" />
        </mxCell>
        <mxCell id="CQPkSI-9hvVEFMWQODbw-110" value="&lt;h1 style=&quot;font-size: 10px;&quot;&gt;&lt;span style=&quot;font-size: 5px; background-color: initial; font-weight: normal;&quot;&gt;Lorem ipsum dolor sit amet, consectetur adipisicing elit, sed do eiusmod tempor incididunt ut labore.&lt;/span&gt;&lt;br&gt;&lt;/h1&gt;" style="text;html=1;strokeColor=none;fillColor=none;spacing=5;spacingTop=-20;whiteSpace=wrap;overflow=hidden;rounded=0;" vertex="1" parent="1">
          <mxGeometry x="476" y="1360" width="128" height="30" as="geometry" />
        </mxCell>
        <mxCell id="CQPkSI-9hvVEFMWQODbw-111" value="&lt;h1 style=&quot;font-size: 10px;&quot;&gt;&lt;span style=&quot;font-size: 5px; background-color: initial; font-weight: normal;&quot;&gt;Lorem ipsum dolor sit amet, consectetur adipisicing elit, sed do eiusmod tempor incididunt ut labore.&lt;/span&gt;&lt;br&gt;&lt;/h1&gt;" style="text;html=1;strokeColor=none;fillColor=none;spacing=5;spacingTop=-20;whiteSpace=wrap;overflow=hidden;rounded=0;" vertex="1" parent="1">
          <mxGeometry x="475" y="1400" width="128" height="30" as="geometry" />
        </mxCell>
        <mxCell id="CQPkSI-9hvVEFMWQODbw-112" value="&lt;h1 style=&quot;font-size: 10px;&quot;&gt;&lt;span style=&quot;font-size: 5px; background-color: initial; font-weight: normal;&quot;&gt;Lorem ipsum dolor sit amet, consectetur adipisicing elit, sed do eiusmod tempor incididunt ut labore.&lt;/span&gt;&lt;br&gt;&lt;/h1&gt;" style="text;html=1;strokeColor=none;fillColor=none;spacing=5;spacingTop=-20;whiteSpace=wrap;overflow=hidden;rounded=0;" vertex="1" parent="1">
          <mxGeometry x="476" y="1440" width="128" height="30" as="geometry" />
        </mxCell>
        <mxCell id="CQPkSI-9hvVEFMWQODbw-113" value="" style="shape=image;html=1;verticalAlign=top;verticalLabelPosition=bottom;labelBackgroundColor=#ffffff;imageAspect=0;aspect=fixed;image=https://cdn1.iconfinder.com/data/icons/material-core/18/check-box-outline-128.png" vertex="1" parent="1">
          <mxGeometry x="475" y="1486" width="14" height="14" as="geometry" />
        </mxCell>
        <mxCell id="CQPkSI-9hvVEFMWQODbw-114" value="" style="line;strokeWidth=4;html=1;perimeter=backbonePerimeter;points=[];outlineConnect=0;" vertex="1" parent="1">
          <mxGeometry x="494" y="1488" width="110" height="10" as="geometry" />
        </mxCell>
        <mxCell id="CQPkSI-9hvVEFMWQODbw-116" style="edgeStyle=orthogonalEdgeStyle;rounded=0;orthogonalLoop=1;jettySize=auto;html=1;entryX=0.496;entryY=-0.01;entryDx=0;entryDy=0;entryPerimeter=0;" edge="1" parent="1" source="CQPkSI-9hvVEFMWQODbw-115" target="CQPkSI-9hvVEFMWQODbw-97">
          <mxGeometry relative="1" as="geometry">
            <Array as="points">
              <mxPoint x="660" y="1535" />
              <mxPoint x="660" y="1670" />
              <mxPoint x="109" y="1670" />
            </Array>
          </mxGeometry>
        </mxCell>
        <mxCell id="CQPkSI-9hvVEFMWQODbw-115" value="Confirmar" style="rounded=0;whiteSpace=wrap;html=1;" vertex="1" parent="1">
          <mxGeometry x="463" y="1520" width="174" height="30" as="geometry" />
        </mxCell>
        <mxCell id="CQPkSI-9hvVEFMWQODbw-117" value="Forma de pagamento" style="text;html=1;strokeColor=none;fillColor=none;align=left;verticalAlign=middle;whiteSpace=wrap;rounded=0;" vertex="1" parent="1">
          <mxGeometry x="31" y="1740" width="158" height="30" as="geometry" />
        </mxCell>
        <mxCell id="CQPkSI-9hvVEFMWQODbw-118" value="&lt;h1 style=&quot;font-size: 10px;&quot;&gt;&lt;span style=&quot;font-size: 5px; background-color: initial; font-weight: normal;&quot;&gt;Lorem ipsum dolor sit amet, consectetur adipisicing elit, sed do eiusmod tempor incididunt ut labore.&lt;/span&gt;&lt;br&gt;&lt;/h1&gt;" style="text;html=1;strokeColor=none;fillColor=none;spacing=5;spacingTop=-20;whiteSpace=wrap;overflow=hidden;rounded=0;" vertex="1" parent="1">
          <mxGeometry x="66.5" y="1780" width="128" height="30" as="geometry" />
        </mxCell>
        <mxCell id="CQPkSI-9hvVEFMWQODbw-119" value="&lt;h1 style=&quot;font-size: 10px;&quot;&gt;&lt;span style=&quot;font-size: 5px; background-color: initial; font-weight: normal;&quot;&gt;Lorem ipsum dolor sit amet, consectetur adipisicing elit, sed do eiusmod tempor incididunt ut labore.&lt;/span&gt;&lt;br&gt;&lt;/h1&gt;" style="text;html=1;strokeColor=none;fillColor=none;spacing=5;spacingTop=-20;whiteSpace=wrap;overflow=hidden;rounded=0;" vertex="1" parent="1">
          <mxGeometry x="65.5" y="1820" width="128" height="30" as="geometry" />
        </mxCell>
        <mxCell id="CQPkSI-9hvVEFMWQODbw-120" value="&lt;h1 style=&quot;font-size: 10px;&quot;&gt;&lt;span style=&quot;font-size: 5px; background-color: initial; font-weight: normal;&quot;&gt;Lorem ipsum dolor sit amet, consectetur adipisicing elit, sed do eiusmod tempor incididunt ut labore.&lt;/span&gt;&lt;br&gt;&lt;/h1&gt;" style="text;html=1;strokeColor=none;fillColor=none;spacing=5;spacingTop=-20;whiteSpace=wrap;overflow=hidden;rounded=0;" vertex="1" parent="1">
          <mxGeometry x="66.5" y="1860" width="128" height="30" as="geometry" />
        </mxCell>
        <mxCell id="CQPkSI-9hvVEFMWQODbw-121" value="" style="rounded=0;whiteSpace=wrap;html=1;" vertex="1" parent="1">
          <mxGeometry x="30" y="1860" width="34" height="30" as="geometry" />
        </mxCell>
        <mxCell id="CQPkSI-9hvVEFMWQODbw-122" value="" style="rounded=0;whiteSpace=wrap;html=1;" vertex="1" parent="1">
          <mxGeometry x="30" y="1820" width="34" height="30" as="geometry" />
        </mxCell>
        <mxCell id="CQPkSI-9hvVEFMWQODbw-123" value="" style="rounded=0;whiteSpace=wrap;html=1;" vertex="1" parent="1">
          <mxGeometry x="30" y="1780" width="34" height="30" as="geometry" />
        </mxCell>
        <mxCell id="CQPkSI-9hvVEFMWQODbw-127" style="edgeStyle=orthogonalEdgeStyle;rounded=0;orthogonalLoop=1;jettySize=auto;html=1;" edge="1" parent="1" source="CQPkSI-9hvVEFMWQODbw-124">
          <mxGeometry relative="1" as="geometry">
            <mxPoint x="230" y="1972" as="targetPoint" />
            <Array as="points">
              <mxPoint x="220" y="2005" />
              <mxPoint x="220" y="1972" />
            </Array>
          </mxGeometry>
        </mxCell>
        <mxCell id="CQPkSI-9hvVEFMWQODbw-124" value="Confirmar" style="rounded=0;whiteSpace=wrap;html=1;" vertex="1" parent="1">
          <mxGeometry x="24" y="1990" width="174" height="30" as="geometry" />
        </mxCell>
        <mxCell id="CQPkSI-9hvVEFMWQODbw-125" value="" style="shape=image;html=1;verticalAlign=top;verticalLabelPosition=bottom;labelBackgroundColor=#ffffff;imageAspect=0;aspect=fixed;image=https://cdn1.iconfinder.com/data/icons/material-core/18/check-box-outline-128.png" vertex="1" parent="1">
          <mxGeometry x="31" y="1910" width="14" height="14" as="geometry" />
        </mxCell>
        <mxCell id="CQPkSI-9hvVEFMWQODbw-126" value="" style="line;strokeWidth=4;html=1;perimeter=backbonePerimeter;points=[];outlineConnect=0;" vertex="1" parent="1">
          <mxGeometry x="50" y="1912" width="130" height="10" as="geometry" />
        </mxCell>
        <mxCell id="CQPkSI-9hvVEFMWQODbw-130" value="&lt;h1&gt;&lt;span style=&quot;background-color: initial;&quot;&gt;Pagamento realizado&lt;br&gt;&lt;/span&gt;&lt;span style=&quot;background-color: initial; font-size: 12px; font-weight: normal;&quot;&gt;Lorem ipsum dolor sit amet, consectetur adipisicing elit, sed do eiusmod tempor incididunt ut labore et dolore magna aliqua.&lt;/span&gt;&lt;br&gt;&lt;/h1&gt;" style="text;html=1;strokeColor=none;fillColor=none;spacing=5;spacingTop=-20;whiteSpace=wrap;overflow=hidden;rounded=0;" vertex="1" parent="1">
          <mxGeometry x="249" y="1766" width="161" height="238" as="geometry" />
        </mxCell>
        <mxCell id="CQPkSI-9hvVEFMWQODbw-132" style="edgeStyle=orthogonalEdgeStyle;rounded=0;orthogonalLoop=1;jettySize=auto;html=1;entryX=-0.02;entryY=0.174;entryDx=0;entryDy=0;entryPerimeter=0;" edge="1" parent="1" source="CQPkSI-9hvVEFMWQODbw-131" target="CQPkSI-9hvVEFMWQODbw-95">
          <mxGeometry relative="1" as="geometry" />
        </mxCell>
        <mxCell id="CQPkSI-9hvVEFMWQODbw-131" value="" style="shape=mxgraph.sysml.x;" vertex="1" parent="1">
          <mxGeometry x="400" y="1735" width="13" height="15" as="geometry" />
        </mxCell>
        <mxCell id="CQPkSI-9hvVEFMWQODbw-133" value="Página de pedidos realizados" style="text;html=1;strokeColor=none;fillColor=none;align=left;verticalAlign=middle;whiteSpace=wrap;rounded=0;" vertex="1" parent="1">
          <mxGeometry x="468.75" y="1735" width="181.25" height="30" as="geometry" />
        </mxCell>
        <mxCell id="CQPkSI-9hvVEFMWQODbw-134" value="&lt;h1 style=&quot;font-size: 10px;&quot;&gt;&lt;span style=&quot;font-size: 5px; background-color: initial; font-weight: normal;&quot;&gt;Lorem ipsum dolor sit amet, consectetur adipisicing elit, sed do eiusmod tempor incididunt ut labore.&lt;/span&gt;&lt;br&gt;&lt;/h1&gt;" style="text;html=1;strokeColor=none;fillColor=none;spacing=5;spacingTop=-20;whiteSpace=wrap;overflow=hidden;rounded=0;" vertex="1" parent="1">
          <mxGeometry x="504.25" y="1775" width="128" height="30" as="geometry" />
        </mxCell>
        <mxCell id="CQPkSI-9hvVEFMWQODbw-140" style="edgeStyle=orthogonalEdgeStyle;rounded=0;orthogonalLoop=1;jettySize=auto;html=1;entryX=0.485;entryY=0.001;entryDx=0;entryDy=0;entryPerimeter=0;" edge="1" parent="1" source="CQPkSI-9hvVEFMWQODbw-135" target="CQPkSI-9hvVEFMWQODbw-100">
          <mxGeometry relative="1" as="geometry">
            <Array as="points">
              <mxPoint x="660" y="1830" />
              <mxPoint x="660" y="2090" />
              <mxPoint x="107" y="2090" />
            </Array>
          </mxGeometry>
        </mxCell>
        <mxCell id="CQPkSI-9hvVEFMWQODbw-135" value="&lt;h1 style=&quot;font-size: 10px;&quot;&gt;&lt;span style=&quot;font-size: 5px; background-color: initial; font-weight: normal;&quot;&gt;Lorem ipsum dolor sit amet, consectetur adipisicing elit, sed do eiusmod tempor incididunt ut labore.&lt;/span&gt;&lt;br&gt;&lt;/h1&gt;" style="text;html=1;strokeColor=none;fillColor=none;spacing=5;spacingTop=-20;whiteSpace=wrap;overflow=hidden;rounded=0;" vertex="1" parent="1">
          <mxGeometry x="503.25" y="1815" width="128" height="30" as="geometry" />
        </mxCell>
        <mxCell id="CQPkSI-9hvVEFMWQODbw-136" value="" style="rounded=0;whiteSpace=wrap;html=1;" vertex="1" parent="1">
          <mxGeometry x="467.75" y="1775" width="34" height="30" as="geometry" />
        </mxCell>
        <mxCell id="CQPkSI-9hvVEFMWQODbw-137" value="" style="rounded=0;whiteSpace=wrap;html=1;" vertex="1" parent="1">
          <mxGeometry x="467.75" y="1815" width="34" height="30" as="geometry" />
        </mxCell>
        <mxCell id="CQPkSI-9hvVEFMWQODbw-138" value="" style="rounded=0;whiteSpace=wrap;html=1;" vertex="1" parent="1">
          <mxGeometry x="467.75" y="1855" width="34" height="30" as="geometry" />
        </mxCell>
        <mxCell id="CQPkSI-9hvVEFMWQODbw-139" value="&lt;h1 style=&quot;font-size: 10px;&quot;&gt;&lt;span style=&quot;font-size: 5px; background-color: initial; font-weight: normal;&quot;&gt;Lorem ipsum dolor sit amet, consectetur adipisicing elit, sed do eiusmod tempor incididunt ut labore.&lt;/span&gt;&lt;br&gt;&lt;/h1&gt;" style="text;html=1;strokeColor=none;fillColor=none;spacing=5;spacingTop=-20;whiteSpace=wrap;overflow=hidden;rounded=0;" vertex="1" parent="1">
          <mxGeometry x="504.25" y="1855" width="128" height="30" as="geometry" />
        </mxCell>
        <mxCell id="CQPkSI-9hvVEFMWQODbw-141" value="Detalhes do pedido" style="text;html=1;strokeColor=none;fillColor=none;align=left;verticalAlign=middle;whiteSpace=wrap;rounded=0;" vertex="1" parent="1">
          <mxGeometry x="28.75" y="2170" width="181.25" height="30" as="geometry" />
        </mxCell>
        <mxCell id="CQPkSI-9hvVEFMWQODbw-142" value="&lt;h1 style=&quot;font-size: 10px;&quot;&gt;&lt;span style=&quot;font-size: 5px; background-color: initial; font-weight: normal;&quot;&gt;Lorem ipsum dolor sit amet, consectetur adipisicing elit, sed do eiusmod tempor incididunt ut labore.&lt;/span&gt;&lt;br&gt;&lt;/h1&gt;" style="text;html=1;strokeColor=none;fillColor=none;spacing=5;spacingTop=-20;whiteSpace=wrap;overflow=hidden;rounded=0;" vertex="1" parent="1">
          <mxGeometry x="64.25" y="2210" width="128" height="30" as="geometry" />
        </mxCell>
        <mxCell id="CQPkSI-9hvVEFMWQODbw-143" value="" style="rounded=0;whiteSpace=wrap;html=1;" vertex="1" parent="1">
          <mxGeometry x="27.75" y="2210" width="34" height="30" as="geometry" />
        </mxCell>
        <mxCell id="CQPkSI-9hvVEFMWQODbw-146" style="edgeStyle=orthogonalEdgeStyle;rounded=0;orthogonalLoop=1;jettySize=auto;html=1;exitX=1;exitY=0.5;exitDx=0;exitDy=0;entryX=0.532;entryY=-0.002;entryDx=0;entryDy=0;entryPerimeter=0;" edge="1" parent="1" source="CQPkSI-9hvVEFMWQODbw-145" target="CQPkSI-9hvVEFMWQODbw-99">
          <mxGeometry relative="1" as="geometry">
            <Array as="points">
              <mxPoint x="220" y="2445" />
              <mxPoint x="220" y="2100" />
              <mxPoint x="336" y="2100" />
            </Array>
          </mxGeometry>
        </mxCell>
        <mxCell id="CQPkSI-9hvVEFMWQODbw-145" value="Solicitar reembolso" style="rounded=0;whiteSpace=wrap;html=1;" vertex="1" parent="1">
          <mxGeometry x="23.5" y="2430" width="174" height="30" as="geometry" />
        </mxCell>
        <mxCell id="CQPkSI-9hvVEFMWQODbw-147" value="Preencher com dados" style="text;html=1;strokeColor=none;fillColor=none;align=center;verticalAlign=middle;whiteSpace=wrap;rounded=0;" vertex="1" parent="1">
          <mxGeometry x="243" y="2160" width="137" height="30" as="geometry" />
        </mxCell>
        <mxCell id="CQPkSI-9hvVEFMWQODbw-148" value="" style="rounded=0;whiteSpace=wrap;html=1;" vertex="1" parent="1">
          <mxGeometry x="253" y="2195" width="155" height="195" as="geometry" />
        </mxCell>
        <mxCell id="CQPkSI-9hvVEFMWQODbw-150" style="edgeStyle=orthogonalEdgeStyle;rounded=0;orthogonalLoop=1;jettySize=auto;html=1;entryX=0.005;entryY=0.786;entryDx=0;entryDy=0;entryPerimeter=0;" edge="1" parent="1" source="CQPkSI-9hvVEFMWQODbw-149" target="CQPkSI-9hvVEFMWQODbw-98">
          <mxGeometry relative="1" as="geometry" />
        </mxCell>
        <mxCell id="CQPkSI-9hvVEFMWQODbw-149" value="Enviar" style="rounded=0;whiteSpace=wrap;html=1;" vertex="1" parent="1">
          <mxGeometry x="243" y="2440" width="174" height="30" as="geometry" />
        </mxCell>
        <mxCell id="CQPkSI-9hvVEFMWQODbw-151" value="&lt;h1&gt;Sucesso!&lt;/h1&gt;&lt;p&gt;Lorem ipsum dolor sit amet, consectetur adipisicing elit, sed do eiusmod tempor incididunt ut labore et dolore magna aliqua.&lt;/p&gt;" style="text;html=1;strokeColor=none;fillColor=none;spacing=5;spacingTop=-20;whiteSpace=wrap;overflow=hidden;rounded=0;" vertex="1" parent="1">
          <mxGeometry x="463" y="2240" width="190" height="120" as="geometry" />
        </mxCell>
        <mxCell id="CQPkSI-9hvVEFMWQODbw-152" value="" style="shape=mxgraph.sysml.x;" vertex="1" parent="1">
          <mxGeometry x="624" y="2170" width="13" height="15" as="geometry" />
        </mxCell>
      </root>
    </mxGraphModel>
  </diagram>
</mxfile>
